<mxfile host="app.diagrams.net" agent="Mozilla/5.0 (Windows NT 10.0; Win64; x64) AppleWebKit/537.36 (KHTML, like Gecko) Chrome/131.0.0.0 Safari/537.36" version="25.0.3">
  <diagram name="Page-1" id="12PwJ12jmy5WZCkIjmJb">
    <mxGraphModel dx="1114" dy="1204" grid="0" gridSize="10" guides="1" tooltips="1" connect="1" arrows="1" fold="1" page="0" pageScale="1" pageWidth="827" pageHeight="1169" math="0" shadow="0">
      <root>
        <mxCell id="0" />
        <mxCell id="1" parent="0" />
        <mxCell id="a2-gWLmapZdN1kxCG2S8-1" value="Eligible participants from original APPETItE study (N = 101)" style="rounded=1;whiteSpace=wrap;html=1;" vertex="1" parent="1">
          <mxGeometry x="-52" y="-109" width="137" height="71" as="geometry" />
        </mxCell>
        <mxCell id="a2-gWLmapZdN1kxCG2S8-3" value="Eligible participants from Prolific recruitment (N = 168)" style="rounded=1;whiteSpace=wrap;html=1;" vertex="1" parent="1">
          <mxGeometry x="94" y="-109" width="137" height="71" as="geometry" />
        </mxCell>
        <mxCell id="a2-gWLmapZdN1kxCG2S8-4" value="Eligible participants from lab study (N = 43)" style="rounded=1;whiteSpace=wrap;html=1;" vertex="1" parent="1">
          <mxGeometry x="240" y="-109" width="137" height="71" as="geometry" />
        </mxCell>
        <mxCell id="a2-gWLmapZdN1kxCG2S8-5" value="Invited to EMA study&amp;nbsp;&lt;div&gt;(N = 312)&lt;/div&gt;" style="rounded=1;whiteSpace=wrap;html=1;" vertex="1" parent="1">
          <mxGeometry x="94" width="137" height="71" as="geometry" />
        </mxCell>
        <mxCell id="a2-gWLmapZdN1kxCG2S8-7" value="Begun EMA study&amp;nbsp;&lt;div&gt;(N = 148)&lt;/div&gt;" style="rounded=1;whiteSpace=wrap;html=1;" vertex="1" parent="1">
          <mxGeometry x="94" y="108" width="137" height="71" as="geometry" />
        </mxCell>
        <mxCell id="a2-gWLmapZdN1kxCG2S8-8" value="Re-assigned to &#39;Happy Eating&#39; Profile&amp;nbsp;&lt;div&gt;(N = 6)&lt;/div&gt;" style="rounded=1;whiteSpace=wrap;html=1;" vertex="1" parent="1">
          <mxGeometry x="-79" y="287" width="137" height="71" as="geometry" />
        </mxCell>
        <mxCell id="a2-gWLmapZdN1kxCG2S8-9" value="Assigned to &#39;Avid Eating&#39; Profile&amp;nbsp;&lt;div&gt;(N = 109)&lt;/div&gt;" style="rounded=1;whiteSpace=wrap;html=1;" vertex="1" parent="1">
          <mxGeometry x="94" y="320" width="137" height="71" as="geometry" />
        </mxCell>
        <mxCell id="a2-gWLmapZdN1kxCG2S8-10" value="Assigned to &#39;Typical Eating&#39; Profile&amp;nbsp;&lt;div&gt;(N = 31)&lt;/div&gt;" style="rounded=1;whiteSpace=wrap;html=1;" vertex="1" parent="1">
          <mxGeometry x="267" y="287" width="137" height="71" as="geometry" />
        </mxCell>
        <mxCell id="a2-gWLmapZdN1kxCG2S8-12" value="" style="endArrow=classic;html=1;rounded=0;fontSize=12;startSize=8;endSize=8;curved=1;entryX=0;entryY=0.5;entryDx=0;entryDy=0;" edge="1" parent="1" target="a2-gWLmapZdN1kxCG2S8-13">
          <mxGeometry width="50" height="50" relative="1" as="geometry">
            <mxPoint x="164" y="191" as="sourcePoint" />
            <mxPoint x="377" y="191" as="targetPoint" />
          </mxGeometry>
        </mxCell>
        <mxCell id="a2-gWLmapZdN1kxCG2S8-13" value="Withdrew from study (N = 2)" style="rounded=1;whiteSpace=wrap;html=1;" vertex="1" parent="1">
          <mxGeometry x="391" y="161" width="120" height="60" as="geometry" />
        </mxCell>
        <mxCell id="a2-gWLmapZdN1kxCG2S8-14" value="" style="endArrow=classic;html=1;rounded=0;fontSize=12;startSize=8;endSize=8;curved=1;exitX=0.5;exitY=1;exitDx=0;exitDy=0;" edge="1" parent="1" source="a2-gWLmapZdN1kxCG2S8-5" target="a2-gWLmapZdN1kxCG2S8-7">
          <mxGeometry width="50" height="50" relative="1" as="geometry">
            <mxPoint x="175" y="225" as="sourcePoint" />
            <mxPoint x="225" y="175" as="targetPoint" />
          </mxGeometry>
        </mxCell>
        <mxCell id="a2-gWLmapZdN1kxCG2S8-15" value="" style="endArrow=classic;html=1;rounded=0;fontSize=12;startSize=8;endSize=8;curved=1;exitX=0.5;exitY=1;exitDx=0;exitDy=0;entryX=0;entryY=0;entryDx=0;entryDy=0;" edge="1" parent="1" source="a2-gWLmapZdN1kxCG2S8-1" target="a2-gWLmapZdN1kxCG2S8-5">
          <mxGeometry width="50" height="50" relative="1" as="geometry">
            <mxPoint x="175" y="225" as="sourcePoint" />
            <mxPoint x="225" y="175" as="targetPoint" />
          </mxGeometry>
        </mxCell>
        <mxCell id="a2-gWLmapZdN1kxCG2S8-16" value="" style="endArrow=classic;html=1;rounded=0;fontSize=12;startSize=8;endSize=8;curved=1;exitX=0.5;exitY=1;exitDx=0;exitDy=0;entryX=1;entryY=0;entryDx=0;entryDy=0;" edge="1" parent="1" source="a2-gWLmapZdN1kxCG2S8-4" target="a2-gWLmapZdN1kxCG2S8-5">
          <mxGeometry width="50" height="50" relative="1" as="geometry">
            <mxPoint x="27" y="-28" as="sourcePoint" />
            <mxPoint x="104" y="10" as="targetPoint" />
          </mxGeometry>
        </mxCell>
        <mxCell id="a2-gWLmapZdN1kxCG2S8-17" value="" style="endArrow=classic;html=1;rounded=0;fontSize=12;startSize=8;endSize=8;curved=1;exitX=0.5;exitY=1;exitDx=0;exitDy=0;entryX=0.5;entryY=0;entryDx=0;entryDy=0;" edge="1" parent="1" source="a2-gWLmapZdN1kxCG2S8-3" target="a2-gWLmapZdN1kxCG2S8-5">
          <mxGeometry width="50" height="50" relative="1" as="geometry">
            <mxPoint x="37" y="-18" as="sourcePoint" />
            <mxPoint x="114" y="20" as="targetPoint" />
          </mxGeometry>
        </mxCell>
        <mxCell id="a2-gWLmapZdN1kxCG2S8-18" value="Latent Profiling of Children" style="ellipse;whiteSpace=wrap;html=1;" vertex="1" parent="1">
          <mxGeometry x="102.5" y="215" width="120" height="56" as="geometry" />
        </mxCell>
        <mxCell id="a2-gWLmapZdN1kxCG2S8-19" value="" style="endArrow=classic;html=1;rounded=0;fontSize=12;startSize=8;endSize=8;curved=1;exitX=0.5;exitY=1;exitDx=0;exitDy=0;entryX=0.5;entryY=0;entryDx=0;entryDy=0;" edge="1" parent="1" source="a2-gWLmapZdN1kxCG2S8-7" target="a2-gWLmapZdN1kxCG2S8-18">
          <mxGeometry width="50" height="50" relative="1" as="geometry">
            <mxPoint x="175" y="225" as="sourcePoint" />
            <mxPoint x="225" y="175" as="targetPoint" />
          </mxGeometry>
        </mxCell>
        <mxCell id="a2-gWLmapZdN1kxCG2S8-20" value="" style="endArrow=classic;html=1;rounded=0;fontSize=12;startSize=8;endSize=8;curved=1;exitX=0.5;exitY=1;exitDx=0;exitDy=0;entryX=0.5;entryY=0;entryDx=0;entryDy=0;" edge="1" parent="1" source="a2-gWLmapZdN1kxCG2S8-18" target="a2-gWLmapZdN1kxCG2S8-9">
          <mxGeometry width="50" height="50" relative="1" as="geometry">
            <mxPoint x="175" y="225" as="sourcePoint" />
            <mxPoint x="225" y="175" as="targetPoint" />
          </mxGeometry>
        </mxCell>
        <mxCell id="a2-gWLmapZdN1kxCG2S8-21" value="" style="endArrow=classic;html=1;rounded=0;fontSize=12;startSize=8;endSize=8;curved=1;exitX=0;exitY=1;exitDx=0;exitDy=0;entryX=1;entryY=0;entryDx=0;entryDy=0;" edge="1" parent="1" source="a2-gWLmapZdN1kxCG2S8-18" target="a2-gWLmapZdN1kxCG2S8-8">
          <mxGeometry width="50" height="50" relative="1" as="geometry">
            <mxPoint x="175" y="225" as="sourcePoint" />
            <mxPoint x="225" y="175" as="targetPoint" />
          </mxGeometry>
        </mxCell>
        <mxCell id="a2-gWLmapZdN1kxCG2S8-22" value="" style="endArrow=classic;html=1;rounded=0;fontSize=12;startSize=8;endSize=8;curved=1;exitX=1;exitY=1;exitDx=0;exitDy=0;entryX=0;entryY=0;entryDx=0;entryDy=0;" edge="1" parent="1" source="a2-gWLmapZdN1kxCG2S8-18" target="a2-gWLmapZdN1kxCG2S8-10">
          <mxGeometry width="50" height="50" relative="1" as="geometry">
            <mxPoint x="175" y="225" as="sourcePoint" />
            <mxPoint x="225" y="175" as="targetPoint" />
          </mxGeometry>
        </mxCell>
        <mxCell id="a2-gWLmapZdN1kxCG2S8-23" value="Completed 8 full days (N = 92)" style="rounded=1;whiteSpace=wrap;html=1;" vertex="1" parent="1">
          <mxGeometry x="34" y="463" width="120" height="60" as="geometry" />
        </mxCell>
        <mxCell id="a2-gWLmapZdN1kxCG2S8-24" value="Completed less than 8 full days (N = 17)" style="rounded=1;whiteSpace=wrap;html=1;" vertex="1" parent="1">
          <mxGeometry x="168" y="463" width="120" height="60" as="geometry" />
        </mxCell>
        <mxCell id="a2-gWLmapZdN1kxCG2S8-25" value="" style="endArrow=classic;html=1;rounded=0;fontSize=12;startSize=8;endSize=8;curved=1;exitX=0.5;exitY=1;exitDx=0;exitDy=0;" edge="1" parent="1" source="a2-gWLmapZdN1kxCG2S8-9" target="a2-gWLmapZdN1kxCG2S8-24">
          <mxGeometry width="50" height="50" relative="1" as="geometry">
            <mxPoint x="175" y="225" as="sourcePoint" />
            <mxPoint x="225" y="175" as="targetPoint" />
          </mxGeometry>
        </mxCell>
        <mxCell id="a2-gWLmapZdN1kxCG2S8-26" value="" style="endArrow=classic;html=1;rounded=0;fontSize=12;startSize=8;endSize=8;curved=1;exitX=0.5;exitY=1;exitDx=0;exitDy=0;entryX=0.75;entryY=0;entryDx=0;entryDy=0;" edge="1" parent="1" source="a2-gWLmapZdN1kxCG2S8-9" target="a2-gWLmapZdN1kxCG2S8-23">
          <mxGeometry width="50" height="50" relative="1" as="geometry">
            <mxPoint x="175" y="225" as="sourcePoint" />
            <mxPoint x="225" y="175" as="targetPoint" />
          </mxGeometry>
        </mxCell>
      </root>
    </mxGraphModel>
  </diagram>
</mxfile>
